<svg width="15" height="14" viewBox="0 0 15 14" fill="none" xmlns="http://www.w3.org/2000/svg">
<path d="M12.7698 7.17623C12.825 7.03151 12.8395 6.87226 12.8113 6.71864C12.7831 6.56501 12.7136 6.42391 12.6116 6.31318L9.69539 3.14602C9.62814 3.0704 9.54769 3.01008 9.45874 2.96858C9.36979 2.92708 9.27413 2.90524 9.17732 2.90433C9.08052 2.90341 8.98452 2.92345 8.89492 2.96326C8.80532 3.00307 8.72392 3.06186 8.65546 3.13621C8.58701 3.21055 8.53288 3.29895 8.49622 3.39626C8.45956 3.49357 8.44111 3.59783 8.44196 3.70297C8.4428 3.8081 8.46291 3.912 8.50112 4.0086C8.53933 4.1052 8.59487 4.19257 8.6645 4.26561L10.337 6.08198H3.3482C3.15484 6.08198 2.9694 6.1654 2.83268 6.31388C2.69595 6.46237 2.61914 6.66377 2.61914 6.87376C2.61914 7.08376 2.69595 7.28515 2.83268 7.43364C2.9694 7.58213 3.15484 7.66555 3.3482 7.66555H10.337L8.66523 9.48113C8.5956 9.55417 8.54006 9.64154 8.50185 9.73814C8.46364 9.83474 8.44352 9.93864 8.44268 10.0438C8.44184 10.1489 8.46029 10.2532 8.49695 10.3505C8.5336 10.4478 8.58774 10.5362 8.65619 10.6105C8.72465 10.6849 8.80605 10.7437 8.89565 10.7835C8.98524 10.8233 9.08125 10.8433 9.17805 10.8424C9.27485 10.8415 9.37052 10.8197 9.45947 10.7782C9.54842 10.7367 9.62887 10.6763 9.69612 10.6007L12.6124 7.43356C12.6799 7.35985 12.7334 7.2724 12.7698 7.17623V7.17623Z" fill="white"/>
</svg>
