<svg width="20" height="21" viewBox="0 0 20 21" fill="none" xmlns="http://www.w3.org/2000/svg">
<path d="M17.4184 11.005C17.4996 10.7923 17.5208 10.5583 17.4794 10.3325C17.438 10.1067 17.3359 9.89932 17.1859 9.73658L12.8999 5.08182C12.8011 4.97068 12.6829 4.88203 12.5521 4.82104C12.4214 4.76005 12.2808 4.72795 12.1385 4.72661C11.9963 4.72526 11.8552 4.75471 11.7235 4.81322C11.5918 4.87173 11.4722 4.95814 11.3716 5.0674C11.271 5.17666 11.1914 5.30659 11.1375 5.4496C11.0836 5.59262 11.0565 5.74585 11.0578 5.90036C11.059 6.05488 11.0886 6.20758 11.1447 6.34955C11.2009 6.49153 11.2825 6.61994 11.3848 6.72728L13.8429 9.39679H3.5715C3.28732 9.39679 3.01478 9.51939 2.81383 9.73762C2.61289 9.95586 2.5 10.2518 2.5 10.5605C2.5 10.8691 2.61289 11.1651 2.81383 11.3833C3.01478 11.6016 3.28732 11.7242 3.5715 11.7242H13.8429L11.3859 14.3925C11.2836 14.4999 11.202 14.6283 11.1458 14.7702C11.0896 14.9122 11.0601 15.0649 11.0588 15.2194C11.0576 15.3739 11.0847 15.5272 11.1386 15.6702C11.1925 15.8132 11.272 15.9431 11.3726 16.0524C11.4732 16.1617 11.5929 16.2481 11.7246 16.3066C11.8562 16.3651 11.9973 16.3945 12.1396 16.3932C12.2819 16.3918 12.4225 16.3597 12.5532 16.2988C12.6839 16.2378 12.8022 16.1491 12.901 16.038L17.187 11.3832C17.2863 11.2749 17.3649 11.1464 17.4184 11.005V11.005Z" fill="white"/>
</svg>
