<svg width="29" height="27" viewBox="0 0 29 27" fill="none" xmlns="http://www.w3.org/2000/svg">
<path d="M8.04684 9.07421C9.17728 9.07421 10.0937 8.16216 10.0937 7.0371C10.0937 5.91204 9.17728 5 8.04684 5C6.9164 5 6 5.91204 6 7.0371C6 8.16216 6.9164 9.07421 8.04684 9.07421Z" fill="white"/>
<path d="M12.027 10.6177V21.9195H15.5528V16.3305C15.5528 14.8558 15.8316 13.4276 17.6689 13.4276C19.4809 13.4276 19.5034 15.1137 19.5034 16.4236V21.9204H23.0311V15.7226C23.0311 12.6781 22.3725 10.3384 18.7971 10.3384C17.0805 10.3384 15.9298 11.2759 15.4593 12.1632H15.4116V10.6177H12.027ZM6.28125 10.6177H9.8127V21.9195H6.28125V10.6177Z" fill="white"/>
</svg>
