<svg width="32" height="32" viewBox="0 0 32 32" fill="none" xmlns="http://www.w3.org/2000/svg">
<path d="M27 10H21C20.2046 10.0008 19.442 10.3171 18.8796 10.8796C18.3171 11.442 18.0008 12.2046 18 13V19C18 19.5304 18.2107 20.0391 18.5858 20.4142C18.9609 20.7893 19.4696 21 20 21V28C20 28.5304 20.2107 29.0391 20.5858 29.4142C20.9609 29.7893 21.4696 30 22 30H26C26.5304 30 27.0391 29.7893 27.4142 29.4142C27.7893 29.0391 28 28.5304 28 28V21C28.5304 21 29.0391 20.7893 29.4142 20.4142C29.7893 20.0391 30 19.5304 30 19V13C29.9992 12.2046 29.6829 11.442 29.1204 10.8796C28.558 10.3171 27.7954 10.0008 27 10ZM28 19H26V28H22V19H20V13C20 12.7348 20.1054 12.4804 20.2929 12.2929C20.4804 12.1054 20.7348 12 21 12H27C27.2652 12 27.5196 12.1054 27.7071 12.2929C27.8946 12.4804 28 12.7348 28 13V19ZM20 5C20 4.20888 20.2346 3.43552 20.6741 2.77772C21.1136 2.11992 21.7384 1.60723 22.4693 1.30448C23.2002 1.00173 24.0044 0.92252 24.7804 1.07686C25.5563 1.2312 26.269 1.61216 26.8284 2.17157C27.3878 2.73098 27.7688 3.44372 27.9231 4.21964C28.0775 4.99556 27.9983 5.79983 27.6955 6.53074C27.3928 7.26164 26.8801 7.88635 26.2223 8.32588C25.5645 8.76541 24.7911 9 24 9C22.9395 8.99894 21.9227 8.57718 21.1727 7.82726C20.4228 7.07734 20.0011 6.06054 20 5ZM22 5C22 5.39556 22.1173 5.78224 22.3371 6.11114C22.5568 6.44004 22.8692 6.69639 23.2346 6.84776C23.6001 6.99914 24.0022 7.03874 24.3902 6.96157C24.7781 6.8844 25.1345 6.69392 25.4142 6.41422C25.6939 6.13451 25.8844 5.77814 25.9616 5.39018C26.0387 5.00222 25.9991 4.60009 25.8478 4.23463C25.6964 3.86918 25.44 3.55683 25.1111 3.33706C24.7822 3.1173 24.3956 3 24 3C23.4696 3 22.9609 3.21072 22.5858 3.58579C22.2107 3.96086 22 4.46957 22 5ZM14 16V13C13.9992 12.2046 13.6829 11.442 13.1204 10.8796C12.558 10.3171 11.7954 10.0008 11 10H5C4.20459 10.0008 3.44199 10.3171 2.87956 10.8796C2.31712 11.442 2.00079 12.2046 2 13V16H0V18H16V16H14ZM4 13C4 12.7348 4.10536 12.4804 4.29289 12.2929C4.48043 12.1054 4.73478 12 5 12H11C11.2652 12 11.5196 12.1054 11.7071 12.2929C11.8946 12.4804 12 12.7348 12 13V16H4V13ZM4 5C4 4.20888 4.2346 3.43552 4.67412 2.77772C5.11365 2.11992 5.73836 1.60723 6.46927 1.30448C7.20017 1.00173 8.00444 0.92252 8.78036 1.07686C9.55628 1.2312 10.269 1.61216 10.8284 2.17157C11.3878 2.73098 11.7688 3.44372 11.9231 4.21964C12.0775 4.99556 11.9983 5.79983 11.6955 6.53074C11.3928 7.26164 10.8801 7.88635 10.2223 8.32588C9.56448 8.76541 8.79113 9 8 9C6.93946 8.99894 5.92266 8.57718 5.17274 7.82726C4.42283 7.07734 4.00106 6.06054 4 5ZM6 5C6 5.39556 6.1173 5.78224 6.33706 6.11114C6.55682 6.44004 6.86918 6.69639 7.23463 6.84776C7.60009 6.99914 8.00222 7.03874 8.39018 6.96157C8.77814 6.8844 9.13451 6.69392 9.41421 6.41422C9.69392 6.13451 9.8844 5.77814 9.96157 5.39018C10.0387 5.00222 9.99913 4.60009 9.84776 4.23463C9.69638 3.86918 9.44004 3.55683 9.11114 3.33706C8.78224 3.1173 8.39556 3 8 3C7.46957 3 6.96086 3.21072 6.58579 3.58579C6.21071 3.96086 6 4.46957 6 5Z" fill="#918BCB"/>
</svg>
