<svg width="15" height="14" viewBox="0 0 15 14" fill="none" xmlns="http://www.w3.org/2000/svg">
<path d="M11.7311 7.5948L12.9248 3.62622C12.9501 3.54185 12.9544 3.45305 12.9375 3.36682C12.9205 3.28058 12.8827 3.19925 12.8271 3.12924C12.7714 3.05923 12.6994 3.00244 12.6168 2.96335C12.5341 2.92425 12.443 2.90392 12.3506 2.90394H4.45437L4.09925 1.62549C4.06564 1.50444 3.9908 1.39736 3.88639 1.32095C3.78199 1.24455 3.65389 1.20312 3.5221 1.20313H2.20427C2.04597 1.20313 1.89416 1.26286 1.78223 1.36918C1.6703 1.4755 1.60742 1.6197 1.60742 1.77006C1.60742 1.92043 1.6703 2.06463 1.78223 2.17095C1.89416 2.27727 2.04597 2.337 2.20427 2.337H3.06253L3.42064 3.61545V3.62112V3.62622L4.61432 7.5948L5.05957 9.28768C4.76481 9.41183 4.51081 9.60927 4.32439 9.85918C4.13797 10.1091 4.02605 10.4022 4.00045 10.7075C3.97485 11.0128 4.03652 11.319 4.17894 11.5938C4.32136 11.8686 4.53926 12.1017 4.80961 12.2686C5.07997 12.4355 5.39276 12.53 5.71494 12.542C6.03713 12.5541 6.35676 12.4832 6.64008 12.337C6.92341 12.1908 7.15991 11.9746 7.32462 11.7113C7.48933 11.448 7.57614 11.1474 7.57587 10.8411C7.57389 10.6475 7.53674 10.4557 7.46605 10.2742H8.87938C8.80869 10.4557 8.77153 10.6475 8.76956 10.8411C8.76956 11.1775 8.87457 11.5063 9.07132 11.786C9.26806 12.0657 9.5477 12.2837 9.87488 12.4124C10.2021 12.5412 10.5621 12.5749 10.9094 12.5092C11.2567 12.4436 11.5758 12.2816 11.8262 12.0438C12.0766 11.8059 12.2471 11.5028 12.3162 11.1729C12.3853 10.843 12.3498 10.501 12.2143 10.1902C12.0788 9.87943 11.8493 9.6138 11.5549 9.42691C11.2604 9.24003 10.9142 9.14028 10.5601 9.14028H6.25087L5.95245 8.0064H11.1569C11.2867 8.00643 11.413 7.96627 11.5166 7.89199C11.6202 7.81772 11.6955 7.71338 11.7311 7.5948ZM10.5601 10.2742C10.6781 10.2742 10.7935 10.3074 10.8917 10.3697C10.9898 10.432 11.0663 10.5205 11.1115 10.6241C11.1567 10.7277 11.1685 10.8417 11.1455 10.9517C11.1224 11.0617 11.0656 11.1627 10.9821 11.242C10.8987 11.3213 10.7923 11.3753 10.6765 11.3971C10.5608 11.419 10.4407 11.4078 10.3317 11.3649C10.2226 11.322 10.1294 11.2493 10.0638 11.1561C9.99825 11.0628 9.96324 10.9532 9.96324 10.8411C9.96324 10.6907 10.0261 10.5465 10.1381 10.4402C10.25 10.3339 10.4018 10.2742 10.5601 10.2742ZM6.38218 10.8411C6.38218 10.9532 6.34717 11.0628 6.28159 11.1561C6.21601 11.2493 6.1228 11.322 6.01374 11.3649C5.90468 11.4078 5.78467 11.419 5.66889 11.3971C5.55312 11.3753 5.44677 11.3213 5.3633 11.242C5.27983 11.1627 5.22299 11.0617 5.19996 10.9517C5.17693 10.8417 5.18875 10.7277 5.23392 10.6241C5.27909 10.5205 5.35559 10.432 5.45374 10.3697C5.55189 10.3074 5.66729 10.2742 5.78533 10.2742C5.94363 10.2742 6.09544 10.3339 6.20737 10.4402C6.3193 10.5465 6.38218 10.6907 6.38218 10.8411ZM9.3664 5.73864H8.76956V6.30558C8.76956 6.45594 8.70667 6.60014 8.59474 6.70647C8.48281 6.81279 8.331 6.87252 8.17271 6.87252C8.01442 6.87252 7.86261 6.81279 7.75068 6.70647C7.63875 6.60014 7.57587 6.45594 7.57587 6.30558V5.73864H6.97902C6.82073 5.73864 6.66892 5.67891 6.55699 5.57259C6.44506 5.46626 6.38218 5.32206 6.38218 5.1717C6.38218 5.02134 6.44506 4.87714 6.55699 4.77081C6.66892 4.66449 6.82073 4.60476 6.97902 4.60476H7.57587V4.03782C7.57587 3.88746 7.63875 3.74326 7.75068 3.63693C7.86261 3.53061 8.01442 3.47088 8.17271 3.47088C8.331 3.47088 8.48281 3.53061 8.59474 3.63693C8.70667 3.74326 8.76956 3.88746 8.76956 4.03782V4.60476H9.3664C9.52469 4.60476 9.6765 4.66449 9.78843 4.77081C9.90036 4.87714 9.96324 5.02134 9.96324 5.1717C9.96324 5.32206 9.90036 5.46626 9.78843 5.57259C9.6765 5.67891 9.52469 5.73864 9.3664 5.73864Z" fill="white"/>
</svg>
