<svg width="20" height="21" viewBox="0 0 20 21" fill="none" xmlns="http://www.w3.org/2000/svg">
<path d="M16.5448 11.6204L18.2991 5.78778C18.3363 5.66378 18.3427 5.53328 18.3178 5.40653C18.2929 5.27979 18.2373 5.16027 18.1555 5.05737C18.0737 4.95448 17.9679 4.87102 17.8464 4.81356C17.7249 4.7561 17.591 4.72621 17.4553 4.72625H5.85017L5.32824 2.84732C5.27885 2.66941 5.16885 2.51203 5.01541 2.39974C4.86197 2.28744 4.67371 2.22655 4.48001 2.22656H2.5432C2.31055 2.22656 2.08744 2.31435 1.92294 2.47061C1.75843 2.62687 1.66602 2.83881 1.66602 3.05979C1.66602 3.28078 1.75843 3.49271 1.92294 3.64897C2.08744 3.80523 2.31055 3.89302 2.5432 3.89302H3.80458L4.33089 5.77195V5.78028V5.78778L6.08525 11.6204L6.73963 14.1084C6.30642 14.2909 5.93312 14.5811 5.65914 14.9483C5.38516 15.3156 5.22067 15.7464 5.18305 16.1951C5.14542 16.6438 5.23605 17.0938 5.44537 17.4977C5.65469 17.9015 5.97493 18.2442 6.37227 18.4895C6.76961 18.7348 7.22931 18.8736 7.70283 18.8913C8.17634 18.909 8.6461 18.8049 9.0625 18.59C9.47891 18.3751 9.8265 18.0574 10.0686 17.6705C10.3106 17.2835 10.4382 16.8416 10.4378 16.3915C10.4349 16.107 10.3803 15.8251 10.2764 15.5582H12.3536C12.2497 15.8251 12.1951 16.107 12.1922 16.3915C12.1922 16.8858 12.3465 17.3691 12.6357 17.7802C12.9248 18.1913 13.3358 18.5117 13.8167 18.7009C14.2975 18.8901 14.8266 18.9396 15.3371 18.8431C15.8476 18.7467 16.3165 18.5086 16.6845 18.159C17.0525 17.8094 17.3032 17.364 17.4047 16.8791C17.5062 16.3942 17.4541 15.8916 17.255 15.4349C17.0558 14.9781 16.7185 14.5877 16.2857 14.313C15.853 14.0384 15.3442 13.8918 14.8237 13.8918H8.49048L8.05189 12.2253H15.7009C15.8917 12.2254 16.0773 12.1663 16.2295 12.0572C16.3818 11.948 16.4925 11.7947 16.5448 11.6204ZM14.8237 15.5582C14.9972 15.5582 15.1668 15.6071 15.3111 15.6986C15.4553 15.7902 15.5677 15.9203 15.6341 16.0726C15.7005 16.2248 15.7179 16.3924 15.684 16.554C15.6502 16.7156 15.5667 16.8641 15.444 16.9806C15.3213 17.0972 15.165 17.1765 14.9949 17.2087C14.8247 17.2408 14.6483 17.2243 14.488 17.1613C14.3278 17.0982 14.1908 16.9914 14.0944 16.8544C13.998 16.7173 13.9465 16.5563 13.9465 16.3915C13.9465 16.1705 14.039 15.9585 14.2035 15.8023C14.368 15.646 14.5911 15.5582 14.8237 15.5582ZM8.68346 16.3915C8.68346 16.5563 8.63201 16.7173 8.53563 16.8544C8.43924 16.9914 8.30225 17.0982 8.14196 17.1613C7.98168 17.2243 7.80531 17.2408 7.63515 17.2087C7.46499 17.1765 7.3087 17.0972 7.18602 16.9806C7.06334 16.8641 6.9798 16.7156 6.94595 16.554C6.91211 16.3924 6.92948 16.2248 6.99587 16.0726C7.06226 15.9203 7.17469 15.7902 7.31894 15.6986C7.4632 15.6071 7.63279 15.5582 7.80628 15.5582C8.03892 15.5582 8.26204 15.646 8.42654 15.8023C8.59104 15.9585 8.68346 16.1705 8.68346 16.3915ZM13.0694 8.89239H12.1922V9.72562C12.1922 9.94661 12.0998 10.1585 11.9353 10.3148C11.7708 10.4711 11.5476 10.5589 11.315 10.5589C11.0824 10.5589 10.8592 10.4711 10.6947 10.3148C10.5302 10.1585 10.4378 9.94661 10.4378 9.72562V8.89239H9.56064C9.328 8.89239 9.10488 8.80461 8.94038 8.64835C8.77588 8.49209 8.68346 8.28015 8.68346 8.05917C8.68346 7.83818 8.77588 7.62624 8.94038 7.46998C9.10488 7.31372 9.328 7.22594 9.56064 7.22594H10.4378V6.39271C10.4378 6.17172 10.5302 5.95979 10.6947 5.80353C10.8592 5.64726 11.0824 5.55948 11.315 5.55948C11.5476 5.55948 11.7708 5.64726 11.9353 5.80353C12.0998 5.95979 12.1922 6.17172 12.1922 6.39271V7.22594H13.0694C13.302 7.22594 13.5251 7.31372 13.6896 7.46998C13.8541 7.62624 13.9465 7.83818 13.9465 8.05917C13.9465 8.28015 13.8541 8.49209 13.6896 8.64835C13.5251 8.80461 13.302 8.89239 13.0694 8.89239Z" fill="white"/>
</svg>
