<svg width="20" height="21" viewBox="0 0 20 21" fill="none" xmlns="http://www.w3.org/2000/svg">
<path d="M10 2.55957C8.51664 2.55957 7.06659 2.99944 5.83323 3.82355C4.59986 4.64766 3.63856 5.819 3.07091 7.18944C2.50325 8.55989 2.35472 10.0679 2.64411 11.5227C2.9335 12.9776 3.64781 14.314 4.6967 15.3629C5.7456 16.4118 7.08197 17.1261 8.53683 17.4155C9.99168 17.7048 11.4997 17.5563 12.8701 16.9887C14.2406 16.421 15.4119 15.4597 16.236 14.2263C17.0601 12.993 17.5 11.5429 17.5 10.0596C17.4978 8.07112 16.7069 6.16473 15.3009 4.75868C13.8948 3.35263 11.9885 2.56175 10 2.55957ZM12.7803 9.08982L9.78025 12.0898C9.63961 12.2304 9.44888 12.3094 9.25 12.3094C9.05113 12.3094 8.8604 12.2304 8.71975 12.0898L7.21975 10.5898C7.08313 10.4484 7.00754 10.2589 7.00925 10.0623C7.01096 9.86562 7.08983 9.67751 7.22889 9.53845C7.36794 9.3994 7.55605 9.32052 7.7527 9.31881C7.94935 9.3171 8.1388 9.3927 8.28025 9.52932L9.25 10.4991L11.7198 8.02932C11.8612 7.8927 12.0507 7.8171 12.2473 7.81881C12.444 7.82052 12.6321 7.8994 12.7711 8.03845C12.9102 8.17751 12.989 8.36562 12.9908 8.56227C12.9925 8.75892 12.9169 8.94837 12.7803 9.08982Z" fill="#1A56DB"/>
</svg>
