<svg width="43" height="40" viewBox="0 0 43 40" fill="none" xmlns="http://www.w3.org/2000/svg">
<g clip-path="url(#clip0_4_3057)">
<path d="M42.2137 17.034C42.2137 7.64317 32.9238 0 21.4994 0C10.0751 0 0.785156 7.64317 0.785156 17.034C0.785156 25.4529 8.15673 32.5074 18.1086 33.8398C18.7841 33.9859 19.7027 34.2961 19.9324 34.8756C20.0965 35.495 20.1196 36.1441 19.9999 36.7739C19.9999 36.7739 19.7567 38.2523 19.7072 38.5672C19.6172 39.1011 19.2884 40.6434 21.5085 39.6988C23.7285 38.7543 33.4372 32.585 37.7827 27.5154C40.7863 24.1798 42.2227 20.794 42.2227 17.0203" fill="#68B82B"/>
<path d="M17.2889 12.4938H15.8389C15.7314 12.4938 15.6283 12.5371 15.5523 12.6141C15.4763 12.6911 15.4336 12.7956 15.4336 12.9045V22.0307C15.4336 22.0844 15.4441 22.1376 15.4645 22.1872C15.485 22.2367 15.5149 22.2817 15.5525 22.3195C15.5902 22.3572 15.6349 22.3871 15.6841 22.4072C15.7332 22.4273 15.7859 22.4374 15.8389 22.4368H17.2889C17.3419 22.4374 17.3945 22.4273 17.4436 22.4072C17.4928 22.3871 17.5375 22.3572 17.5752 22.3195C17.6128 22.2817 17.6428 22.2367 17.6632 22.1872C17.6836 22.1376 17.6942 22.0844 17.6942 22.0307V12.8999C17.6942 12.791 17.6514 12.6866 17.5754 12.6095C17.4994 12.5325 17.3964 12.4893 17.2889 12.4893" fill="white"/>
<path d="M27.3049 12.4938H25.8549C25.7475 12.4938 25.6443 12.5371 25.5683 12.6141C25.4923 12.6911 25.4497 12.7956 25.4497 12.9045V18.3391L21.3158 12.6764L21.2843 12.6353H19.7172C19.6642 12.6353 19.6117 12.6459 19.5628 12.6666C19.5139 12.6873 19.4695 12.7177 19.4322 12.7558C19.3949 12.794 19.3655 12.8393 19.3456 12.8891C19.3257 12.9389 19.3158 12.9923 19.3164 13.046V22.1721C19.3164 22.2798 19.3586 22.3831 19.4338 22.4593C19.509 22.5355 19.6109 22.5783 19.7172 22.5783H21.1717C21.2784 22.5783 21.3808 22.5356 21.4567 22.4596C21.5326 22.3836 21.5758 22.2803 21.577 22.1721V16.7421L25.7153 22.4094C25.7443 22.4483 25.7793 22.4822 25.8189 22.5098H25.8414H25.8685C25.9028 22.5146 25.9377 22.5146 25.972 22.5098H27.3049C27.3579 22.5104 27.4105 22.5003 27.4597 22.4802C27.5088 22.4601 27.5535 22.4303 27.5912 22.3925C27.6289 22.3547 27.6589 22.3097 27.6793 22.2602C27.6997 22.2106 27.7102 22.1574 27.7102 22.1037V12.8999C27.7102 12.846 27.6998 12.7926 27.6794 12.7428C27.659 12.693 27.6291 12.6477 27.5915 12.6095C27.5539 12.5714 27.5092 12.5412 27.46 12.5205C27.4108 12.4999 27.3582 12.4893 27.3049 12.4893" fill="white"/>
<path d="M13.7938 20.1689H9.84453V12.8999C9.84453 12.791 9.80182 12.6866 9.72582 12.6095C9.64981 12.5325 9.54675 12.4893 9.43926 12.4893H7.98925C7.88176 12.4893 7.7787 12.5325 7.70269 12.6095C7.62669 12.6866 7.58398 12.791 7.58398 12.8999V22.0261C7.58473 22.1315 7.62497 22.2326 7.69656 22.309C7.77197 22.3816 7.87178 22.4223 7.97575 22.4231H13.7938C13.9005 22.4219 14.0024 22.3781 14.0774 22.3012C14.1524 22.2243 14.1945 22.1205 14.1945 22.0124V20.5385C14.1945 20.4308 14.1523 20.3275 14.0771 20.2514C14.002 20.1752 13.9001 20.1324 13.7938 20.1324" fill="white"/>
<path d="M35.3148 14.7845C35.3678 14.7851 35.4204 14.775 35.4696 14.7549C35.5187 14.7348 35.5634 14.7049 35.6011 14.6672C35.6388 14.6294 35.6688 14.5844 35.6892 14.5348C35.7096 14.4853 35.7201 14.4321 35.7201 14.3784V12.8999C35.7201 12.791 35.6774 12.6866 35.6014 12.6095C35.5254 12.5325 35.4223 12.4893 35.3148 12.4893H29.5103C29.4054 12.4898 29.305 12.5325 29.2311 12.6079C29.1608 12.6848 29.1221 12.786 29.1231 12.8908V22.017C29.1225 22.0693 29.1321 22.1213 29.1514 22.1698C29.1708 22.2184 29.1994 22.2626 29.2356 22.2999C29.3095 22.3753 29.4099 22.418 29.5148 22.4185H35.3193C35.4268 22.4185 35.5299 22.3753 35.6059 22.2982C35.6819 22.2212 35.7246 22.1168 35.7246 22.0079V20.534C35.7246 20.4803 35.7141 20.4271 35.6937 20.3775C35.6733 20.3279 35.6433 20.283 35.6056 20.2452C35.5679 20.2074 35.5232 20.1776 35.4741 20.1575C35.4249 20.1373 35.3724 20.1273 35.3193 20.1279H31.3566V18.581H35.3058C35.4133 18.581 35.5164 18.5377 35.5924 18.4607C35.6684 18.3837 35.7111 18.2792 35.7111 18.1703V16.701C35.7111 16.5921 35.6684 16.4876 35.5924 16.4106C35.5164 16.3336 35.4133 16.2903 35.3058 16.2903H31.3566V14.7434L35.3148 14.7845Z" fill="white"/>
</g>
<defs>
<clipPath id="clip0_4_3057">
<rect width="41.4286" height="40" fill="white" transform="translate(0.785156)"/>
</clipPath>
</defs>
</svg>
