<svg width="37" height="41" viewBox="0 0 37 41" fill="none" xmlns="http://www.w3.org/2000/svg">
<path d="M22.7715 18.1418V22.4092H23.3298C24.2541 22.4092 24.7566 22.9701 24.8063 23.5407C24.8311 23.8284 24.7318 24.0921 24.5147 24.2791C24.2976 24.4709 23.9502 24.6147 23.3298 24.6147C23.0196 24.6147 22.6412 24.4805 22.3621 24.2599C22.0767 24.0442 21.903 23.7517 21.903 23.5119H20.7864C20.7864 24.0394 21.1089 24.514 21.568 24.8737C22.0333 25.2285 22.6474 25.4778 23.3298 25.4778C24.1983 25.4778 24.9055 25.2381 25.346 24.8545C25.7926 24.4661 25.9663 23.9627 25.9229 23.4832C25.8485 22.6441 25.0916 21.7964 23.8881 21.5931V18.1418H22.7715ZM19.8 24.8784L11.254 29.2177H13.2825L20.4079 25.5977L19.8 24.8784ZM26.8596 24.8784L26.2517 25.5977L33.3796 29.2177H35.4019L26.8596 24.8784ZM9.99219 30.0807V40.725H36.6674V30.0807H9.99219ZM12.3495 31.1835H13.4662V39.6223H12.3495V31.1835ZM15.3272 31.1835H16.4439V39.6223H15.3272V31.1835ZM18.3049 31.1835H19.4216V39.6223H18.3049V31.1835ZM21.2826 31.1835H22.3993V39.6223H21.2826V31.1835ZM24.2603 31.1835H25.377V39.6223H24.2603V31.1835ZM27.2381 31.1835H28.3547V39.6223H27.2381V31.1835ZM30.2158 31.1835H31.3324V39.6223H30.2158V31.1835ZM33.1935 31.1835H34.3101V39.6223H33.1935V31.1835Z" fill="#918BCB"/>
<path d="M35.735 1.68549C36.9791 2.67054 36.9791 4.25663 35.735 5.22497L27.5319 11.7196L32.0025 27.0629L29.0291 29.4337L20.8472 17.0288L12.623 23.5401L13.3822 27.664L11.1258 29.4337L7.41442 24.1245L0.6875 21.1693L2.92278 19.3662L8.19466 19.984L16.3555 13.5227L0.6875 6.99472L3.68193 4.64063L23.0614 8.18011L31.2644 1.68549C32.4453 0.717141 34.5541 0.717141 35.735 1.68549Z" fill="#918BCB"/>
</svg>
