<svg width="49" height="40" viewBox="0 0 49 40" fill="none" xmlns="http://www.w3.org/2000/svg">
<path d="M14.2548 26.1528C14.3225 26.3475 14.4376 26.5297 14.5938 26.6889C14.7499 26.8482 14.9439 26.9815 15.1647 27.0811C15.3855 27.1807 15.6288 27.2447 15.8807 27.2694C16.1325 27.2942 16.3881 27.2792 16.6327 27.2253C16.8773 27.1715 17.1062 27.0798 17.3063 26.9555C17.5064 26.8312 17.6737 26.6768 17.7989 26.501C17.924 26.3252 18.0044 26.1316 18.0355 25.9311C18.0666 25.7306 18.0477 25.5271 17.9801 25.3324L14.2548 26.1528ZM3.16143 4.53728C2.91586 4.48018 2.65849 4.46247 2.40426 4.48518C2.15003 4.50788 1.90399 4.57055 1.68043 4.66955C1.45686 4.76855 1.26022 4.9019 1.1019 5.06187C0.943591 5.22184 0.826761 5.40525 0.758194 5.60144C0.689626 5.79764 0.670686 6.00273 0.702472 6.2048C0.734258 6.40687 0.816138 6.6019 0.94336 6.77858C1.07058 6.95526 1.24061 7.11008 1.44359 7.23403C1.64656 7.35799 1.87844 7.44863 2.12577 7.50069L3.16143 4.53728ZM46.9269 27.0961C47.1785 27.0498 47.4159 26.9638 47.625 26.8433C47.8342 26.7227 48.0108 26.5699 48.1445 26.3941C48.2783 26.2182 48.3664 26.0228 48.4036 25.8194C48.4409 25.616 48.4265 25.4087 48.3614 25.2098C48.2963 25.0109 48.1818 24.8244 48.0246 24.6613C47.8674 24.4982 47.6707 24.3618 47.4462 24.2603C47.2217 24.1587 46.9739 24.094 46.7174 24.07C46.461 24.046 46.2011 24.0631 45.9531 24.1204L46.9269 27.0961ZM21.1875 30.8573C21.9861 33.1542 20.2343 35.5803 17.1325 36.2222L18.1037 39.1979C23.197 38.1459 26.3091 34.0668 24.9128 30.037L21.1875 30.8573ZM17.1325 36.2222C14.0101 36.8682 10.8773 35.4244 10.0735 33.107L6.34826 33.9274C7.73944 37.9367 13.0311 40.2479 18.1037 39.1979L17.1325 36.2222ZM10.0735 33.107C9.27489 30.8101 11.0267 28.384 14.1286 27.7421L13.1573 24.7685C8.06405 25.8205 4.94935 29.8975 6.34826 33.9274L10.0735 33.107ZM14.1286 27.7421C17.251 27.0961 20.3837 28.5399 21.1875 30.8573L24.9128 30.037C23.5216 26.0277 18.23 23.7164 13.1573 24.7664L14.1286 27.7421ZM17.9801 25.3324L12.436 9.35667L8.71069 10.177L14.2548 26.1528L17.9801 25.3324ZM7.55137 5.50526L3.16143 4.53728L2.12577 7.50069L6.51829 8.47072L7.55137 5.50526ZM12.436 9.35667C12.1091 8.4335 11.4873 7.59349 10.6313 6.91852C9.77526 6.24355 8.71414 5.75664 7.55137 5.50526L6.52344 8.47072C7.61835 8.71272 8.43245 9.37512 8.71069 10.177L12.436 9.35667ZM23.5396 31.936L46.9269 27.0961L45.9557 24.1204L22.5658 28.9603L23.5396 31.936Z" fill="#918BCB"/>
<path d="M19.5593 12.7507C18.3098 9.15154 17.6864 7.35093 18.7478 5.93383C19.8066 4.51467 22.1382 4.03273 26.8012 3.0668L31.7476 2.0455C36.4106 1.08162 38.7422 0.597633 40.579 1.4159C42.4159 2.23623 43.0419 4.03478 44.2888 7.63599L45.6156 11.4546C46.8651 15.0538 47.4911 16.8544 46.4297 18.2735C45.3683 19.6906 43.0368 20.1746 38.3737 21.1385L33.4273 22.1618C28.7643 23.1257 26.4328 23.6077 24.5959 22.7894C22.759 21.9691 22.1356 20.1705 20.8861 16.5713L19.5593 12.7507Z" stroke="#918BCB" stroke-width="1.5"/>
</svg>
