<svg width="68" height="68" viewBox="0 0 68 68" fill="none" xmlns="http://www.w3.org/2000/svg">
<g filter="url(#filter0_d_4_4154)">
<circle cx="34" cy="31" r="26" fill="white"/>
<path d="M28.7159 18.3539L30.0622 17.8809C31.3222 17.4381 32.6697 18.1545 33.2097 19.5542L34.2847 22.3427C34.7534 23.5569 34.4934 24.9855 33.6422 25.8737L31.2759 28.346C31.4222 29.8255 31.8734 31.2816 32.6309 32.7144C33.3507 34.1006 34.316 35.3139 35.4697 36.2825L38.3147 35.2375C39.3922 34.8429 40.5659 35.298 41.2272 36.3664L42.7672 38.8551C43.5372 40.0981 43.3984 41.8113 42.4447 42.8646L41.4222 43.9935C40.4047 45.1168 38.9522 45.5252 37.6072 45.0632C34.4334 43.9742 31.5159 40.7416 28.8534 35.3654C26.1872 29.9809 25.2472 25.4104 26.0309 21.6594C26.3609 20.0809 27.3834 18.8227 28.7184 18.3539" fill="#4B2685"/>
</g>
<defs>
<filter id="filter0_d_4_4154" x="0" y="0" width="68" height="68" filterUnits="userSpaceOnUse" color-interpolation-filters="sRGB">
<feFlood flood-opacity="0" result="BackgroundImageFix"/>
<feColorMatrix in="SourceAlpha" type="matrix" values="0 0 0 0 0 0 0 0 0 0 0 0 0 0 0 0 0 0 127 0" result="hardAlpha"/>
<feOffset dy="3"/>
<feGaussianBlur stdDeviation="4"/>
<feComposite in2="hardAlpha" operator="out"/>
<feColorMatrix type="matrix" values="0 0 0 0 0 0 0 0 0 0 0 0 0 0 0 0 0 0 0.25 0"/>
<feBlend mode="normal" in2="BackgroundImageFix" result="effect1_dropShadow_4_4154"/>
<feBlend mode="normal" in="SourceGraphic" in2="effect1_dropShadow_4_4154" result="shape"/>
</filter>
</defs>
</svg>
