<svg width="44" height="30" viewBox="0 0 44 30" fill="none" xmlns="http://www.w3.org/2000/svg">
<path d="M20.9188 0V5.50682H21.8128C23.2928 5.50682 24.0973 6.23076 24.1768 6.96706C24.2165 7.33831 24.0576 7.67862 23.7099 7.91993C23.3623 8.16743 22.806 8.35305 21.8128 8.35305C21.3161 8.35305 20.7102 8.1798 20.2632 7.89518C19.8063 7.61674 19.5282 7.23931 19.5282 6.92994H17.7403C17.7403 7.61056 18.2568 8.22311 18.9918 8.68717C19.7368 9.14504 20.7201 9.46679 21.8128 9.46679C23.2034 9.46679 24.3357 9.15742 25.0409 8.66242C25.7561 8.16124 26.0342 7.51156 25.9647 6.89281C25.8455 5.81001 24.6337 4.71607 22.7067 4.45372V0H20.9188ZM16.1609 8.69336L2.47738 14.293H5.72544L17.1344 9.62147L16.1609 8.69336ZM27.4646 8.69336L26.4911 9.62147L37.904 14.293H41.1422L27.4646 8.69336ZM0.457031 15.4067V29.1429H43.1685V15.4067H0.457031ZM4.23153 16.8298H6.01945V27.7197H4.23153V16.8298ZM8.99932 16.8298H10.7872V27.7197H8.99932V16.8298ZM13.7671 16.8298H15.555V27.7197H13.7671V16.8298ZM18.5349 16.8298H20.3228V27.7197H18.5349V16.8298ZM23.3027 16.8298H25.0906V27.7197H23.3027V16.8298ZM28.0705 16.8298H29.8584V27.7197H28.0705V16.8298ZM32.8383 16.8298H34.6262V27.7197H32.8383V16.8298ZM37.6061 16.8298H39.394V27.7197H37.6061V16.8298Z" fill="#918BCB"/>
</svg>
