<svg width="40" height="40" viewBox="0 0 40 40" fill="none" xmlns="http://www.w3.org/2000/svg">
<path d="M31.666 14.9998C30.0827 14.9998 28.7077 14.5276 27.541 13.5832C26.3743 12.6387 25.5966 11.4443 25.2077 9.99984H14.7494C14.4438 11.1665 13.8677 12.1737 13.021 13.0215C12.1743 13.8693 11.1671 14.4454 9.99935 14.7498V25.2082C11.4438 25.5971 12.6382 26.3748 13.5827 27.5415C14.5271 28.7082 14.9993 30.0832 14.9993 31.6665C14.9993 33.4998 14.3466 35.0693 13.041 36.3748C11.7355 37.6804 10.166 38.3332 8.33268 38.3332C6.49935 38.3332 4.9299 37.6804 3.62435 36.3748C2.31879 35.0693 1.66602 33.4998 1.66602 31.6665C1.66602 30.0832 2.13824 28.7082 3.08268 27.5415C4.02713 26.3748 5.22157 25.5971 6.66602 25.2082V14.7498C5.22157 14.3609 4.02713 13.5832 3.08268 12.4165C2.13824 11.2498 1.66602 9.88873 1.66602 8.33317C1.66602 6.49984 2.31879 4.93039 3.62435 3.62484C4.9299 2.31928 6.49935 1.6665 8.33268 1.6665C9.88824 1.6665 11.2493 2.13873 12.416 3.08317C13.5827 4.02762 14.3605 5.22206 14.7494 6.6665H25.2077C25.5966 5.22206 26.3743 4.02762 27.541 3.08317C28.7077 2.13873 30.0827 1.6665 31.666 1.6665C33.4993 1.6665 35.0688 2.31928 36.3744 3.62484C37.6799 4.93039 38.3327 6.49984 38.3327 8.33317C38.3327 10.1665 37.6799 11.7359 36.3744 13.0415C35.0688 14.3471 33.4993 14.9998 31.666 14.9998ZM8.33268 34.9998C9.24935 34.9998 10.0343 34.6665 10.6877 33.9998C11.341 33.3332 11.6671 32.5554 11.666 31.6665C11.666 30.7498 11.3399 29.9654 10.6877 29.3132C10.0355 28.6609 9.25046 28.3343 8.33268 28.3332C7.44379 28.3332 6.66602 28.6598 5.99935 29.3132C5.33268 29.9665 4.99935 30.7509 4.99935 31.6665C4.99935 32.5554 5.33268 33.3332 5.99935 33.9998C6.66602 34.6665 7.44379 34.9998 8.33268 34.9998ZM8.33268 11.6665C9.24935 11.6665 10.0343 11.3404 10.6877 10.6882C11.341 10.0359 11.6671 9.25095 11.666 8.33317C11.666 7.4165 11.3399 6.63206 10.6877 5.97984C10.0355 5.32762 9.25046 5.00095 8.33268 4.99984C7.44379 4.99984 6.66602 5.3265 5.99935 5.97984C5.33268 6.63317 4.99935 7.41762 4.99935 8.33317C4.99935 9.24984 5.33268 10.0348 5.99935 10.6882C6.66602 11.3415 7.44379 11.6676 8.33268 11.6665ZM31.666 38.3332C29.8327 38.3332 28.2632 37.6804 26.9577 36.3748C25.6521 35.0693 24.9993 33.4998 24.9993 31.6665C24.9993 29.8332 25.6521 28.2637 26.9577 26.9582C28.2632 25.6526 29.8327 24.9998 31.666 24.9998C33.4993 24.9998 35.0688 25.6526 36.3744 26.9582C37.6799 28.2637 38.3327 29.8332 38.3327 31.6665C38.3327 33.4998 37.6799 35.0693 36.3744 36.3748C35.0688 37.6804 33.4993 38.3332 31.666 38.3332ZM31.666 34.9998C32.5827 34.9998 33.3677 34.6665 34.021 33.9998C34.6744 33.3332 35.0005 32.5554 34.9994 31.6665C34.9994 30.7498 34.6732 29.9654 34.021 29.3132C33.3688 28.6609 32.5838 28.3343 31.666 28.3332C30.7493 28.3332 29.9649 28.6598 29.3127 29.3132C28.6605 29.9665 28.3338 30.7509 28.3327 31.6665C28.3327 32.5554 28.6593 33.3332 29.3127 33.9998C29.966 34.6665 30.7505 34.9998 31.666 34.9998ZM31.666 11.6665C32.5827 11.6665 33.3677 11.3404 34.021 10.6882C34.6744 10.0359 35.0005 9.25095 34.9994 8.33317C34.9994 7.4165 34.6732 6.63206 34.021 5.97984C33.3688 5.32762 32.5838 5.00095 31.666 4.99984C30.7493 4.99984 29.9649 5.3265 29.3127 5.97984C28.6605 6.63317 28.3338 7.41762 28.3327 8.33317C28.3327 9.24984 28.6593 10.0348 29.3127 10.6882C29.966 11.3415 30.7505 11.6676 31.666 11.6665ZM8.33268 34.9998C7.44379 34.9998 6.66602 34.6665 5.99935 33.9998C5.33268 33.3332 4.99935 32.5554 4.99935 31.6665C4.99935 30.7509 5.33268 29.9665 5.99935 29.3132C6.66602 28.6598 7.44379 28.3332 8.33268 28.3332C9.25046 28.3343 10.0355 28.6609 10.6877 29.3132C11.3399 29.9654 11.666 30.7498 11.666 31.6665C11.6671 32.5554 11.341 33.3332 10.6877 33.9998C10.0343 34.6665 9.24935 34.9998 8.33268 34.9998ZM8.33268 11.6665C7.44379 11.6676 6.66602 11.3415 5.99935 10.6882C5.33268 10.0348 4.99935 9.24984 4.99935 8.33317C4.99935 7.41762 5.33268 6.63317 5.99935 5.97984C6.66602 5.3265 7.44379 4.99984 8.33268 4.99984C9.25046 5.00095 10.0355 5.32762 10.6877 5.97984C11.3399 6.63206 11.666 7.4165 11.666 8.33317C11.6671 9.25095 11.341 10.0359 10.6877 10.6882C10.0343 11.3404 9.24935 11.6665 8.33268 11.6665ZM31.666 34.9998C30.7505 34.9998 29.966 34.6665 29.3127 33.9998C28.6593 33.3332 28.3327 32.5554 28.3327 31.6665C28.3338 30.7509 28.6605 29.9665 29.3127 29.3132C29.9649 28.6598 30.7493 28.3332 31.666 28.3332C32.5838 28.3343 33.3688 28.6609 34.021 29.3132C34.6732 29.9654 34.9994 30.7498 34.9994 31.6665C35.0005 32.5554 34.6744 33.3332 34.021 33.9998C33.3677 34.6665 32.5827 34.9998 31.666 34.9998ZM31.666 11.6665C30.7505 11.6676 29.966 11.3415 29.3127 10.6882C28.6593 10.0348 28.3327 9.24984 28.3327 8.33317C28.3338 7.41762 28.6605 6.63317 29.3127 5.97984C29.9649 5.3265 30.7493 4.99984 31.666 4.99984C32.5838 5.00095 33.3688 5.32762 34.021 5.97984C34.6732 6.63206 34.9994 7.4165 34.9994 8.33317C35.0005 9.25095 34.6744 10.0359 34.021 10.6882C33.3677 11.3404 32.5827 11.6665 31.666 11.6665Z" fill="#4B2685"/>
</svg>
