<svg width="28" height="28" viewBox="0 0 28 28" fill="none" xmlns="http://www.w3.org/2000/svg">
<g clip-path="url(#clip0_4_4347)">
<g opacity="0.28" clip-path="url(#clip1_4_4347)">
<path d="M16.2012 16.1191C15.3991 15.4355 14.5104 14.9115 13.5352 14.5469C12.5599 14.1823 11.5482 14 10.5 14C9.69792 14 8.92318 14.1048 8.17578 14.3145C7.42839 14.5241 6.73112 14.8158 6.08398 15.1895C5.43685 15.5632 4.84896 16.0189 4.32031 16.5566C3.79167 17.0944 3.33594 17.6868 2.95312 18.334C2.57031 18.9811 2.27409 19.6784 2.06445 20.4258C1.85482 21.1732 1.75 21.9479 1.75 22.75H0C0 21.6562 0.159505 20.6035 0.478516 19.5918C0.797526 18.5801 1.25781 17.6458 1.85938 16.7891C2.46094 15.9323 3.17188 15.1712 3.99219 14.5059C4.8125 13.8405 5.74219 13.3164 6.78125 12.9336C5.7513 12.2591 4.94922 11.4115 4.375 10.3906C3.80078 9.36979 3.50911 8.23958 3.5 7C3.5 6.03385 3.68229 5.12695 4.04688 4.2793C4.41146 3.43164 4.9082 2.6888 5.53711 2.05078C6.16602 1.41276 6.90885 0.911458 7.76562 0.546875C8.6224 0.182292 9.53385 0 10.5 0C11.4661 0 12.373 0.182292 13.2207 0.546875C14.0684 0.911458 14.8112 1.4082 15.4492 2.03711C16.0872 2.66602 16.5885 3.40885 16.9531 4.26562C17.3177 5.1224 17.5 6.03385 17.5 7C17.5 7.60156 17.4271 8.18945 17.2812 8.76367C17.1354 9.33789 16.9167 9.88021 16.625 10.3906C16.3333 10.901 15.9915 11.3704 15.5996 11.7988C15.2077 12.2272 14.7474 12.6055 14.2188 12.9336C14.8112 13.1615 15.3763 13.4395 15.9141 13.7676C16.4518 14.0957 16.9577 14.4648 17.4316 14.875L16.2012 16.1191ZM5.25 7C5.25 7.72917 5.38672 8.4082 5.66016 9.03711C5.93359 9.66602 6.30729 10.222 6.78125 10.7051C7.25521 11.1882 7.8112 11.5664 8.44922 11.8398C9.08724 12.1133 9.77083 12.25 10.5 12.25C11.2201 12.25 11.8991 12.1133 12.5371 11.8398C13.1751 11.5664 13.7311 11.1927 14.2051 10.7188C14.679 10.2448 15.0573 9.6888 15.3398 9.05078C15.6224 8.41276 15.7591 7.72917 15.75 7C15.75 6.27995 15.6133 5.60091 15.3398 4.96289C15.0664 4.32487 14.6927 3.76888 14.2188 3.29492C13.7448 2.82096 13.1842 2.44271 12.5371 2.16016C11.89 1.8776 11.2109 1.74089 10.5 1.75C9.77083 1.75 9.0918 1.88672 8.46289 2.16016C7.83398 2.43359 7.27799 2.80729 6.79492 3.28125C6.31185 3.75521 5.93359 4.31576 5.66016 4.96289C5.38672 5.61003 5.25 6.28906 5.25 7ZM23.625 10.5C24.2266 10.5 24.7917 10.6139 25.3203 10.8418C25.849 11.0697 26.3092 11.3841 26.7012 11.7852C27.0931 12.1862 27.4076 12.651 27.6445 13.1797C27.8815 13.7083 28 14.2734 28 14.875C28 15.4766 27.8861 16.0417 27.6582 16.5703C27.4303 17.099 27.1159 17.5638 26.7148 17.9648C26.3138 18.3659 25.849 18.6803 25.3203 18.9082C24.7917 19.1361 24.2266 19.25 23.625 19.25C23.4154 19.25 23.2103 19.2363 23.0098 19.209L14.9844 27.2344C14.7383 27.4805 14.4557 27.6673 14.1367 27.7949C13.8177 27.9225 13.4805 27.9909 13.125 28C12.7604 28 12.4186 27.9316 12.0996 27.7949C11.7806 27.6582 11.5026 27.4714 11.2656 27.2344C11.0286 26.9974 10.8418 26.7194 10.7051 26.4004C10.5684 26.0814 10.5 25.7396 10.5 25.375C10.5 25.0286 10.5638 24.696 10.6914 24.377C10.819 24.0579 11.0104 23.7708 11.2656 23.5156L19.291 15.4902C19.2637 15.2897 19.25 15.0846 19.25 14.875C19.25 14.2734 19.3639 13.7083 19.5918 13.1797C19.8197 12.651 20.1296 12.1908 20.5215 11.7988C20.9134 11.4069 21.3783 11.0924 21.916 10.8555C22.4538 10.6185 23.0234 10.5 23.625 10.5ZM23.625 17.5C23.9896 17.5 24.3314 17.4316 24.6504 17.2949C24.9694 17.1582 25.2474 16.9714 25.4844 16.7344C25.7214 16.4974 25.9082 16.2194 26.0449 15.9004C26.1816 15.5814 26.25 15.2396 26.25 14.875C26.25 14.5013 26.1634 14.1276 25.9902 13.7539L23.9941 15.75H22.75V14.5059L24.7461 12.5098C24.3724 12.3366 23.9987 12.25 23.625 12.25C23.2604 12.25 22.9186 12.3184 22.5996 12.4551C22.2806 12.5918 22.0026 12.7786 21.7656 13.0156C21.5286 13.2526 21.3418 13.5306 21.2051 13.8496C21.0684 14.1686 21 14.5104 21 14.875C21 15.2487 21.0866 15.6224 21.2598 15.9961L12.5098 24.7598C12.3366 24.9329 12.25 25.138 12.25 25.375C12.25 25.612 12.3366 25.8171 12.5098 25.9902C12.6829 26.1634 12.888 26.25 13.125 26.25C13.362 26.25 13.5671 26.1634 13.7402 25.9902L22.5039 17.2402C22.8776 17.4134 23.2513 17.5 23.625 17.5Z" fill="#918BCB"/>
</g>
</g>
<defs>
<clipPath id="clip0_4_4347">
<rect width="27.4437" height="28" fill="white" transform="translate(0.484375)"/>
</clipPath>
<clipPath id="clip1_4_4347">
<rect width="28" height="28" fill="white"/>
</clipPath>
</defs>
</svg>
