<svg width="28" height="27" viewBox="0 0 28 27" fill="none" xmlns="http://www.w3.org/2000/svg">
<path d="M11.3333 16.8333L17.3883 13.5833L11.3333 10.3333V16.8333ZM24.82 8.35083C24.9717 8.86 25.0767 9.5425 25.1467 10.4092C25.2283 11.2758 25.2633 12.0233 25.2633 12.6733L25.3333 13.5833C25.3333 15.9558 25.1467 17.7 24.82 18.8158C24.5283 19.7908 23.8517 20.4192 22.8017 20.69C22.2533 20.8308 21.25 20.9283 19.71 20.9933C18.1933 21.0692 16.805 21.1017 15.5217 21.1017L13.6667 21.1667C8.77833 21.1667 5.73333 20.9933 4.53167 20.69C3.48167 20.4192 2.805 19.7908 2.51333 18.8158C2.36167 18.3067 2.25667 17.6242 2.18667 16.7575C2.105 15.8908 2.07 15.1433 2.07 14.4933L2 13.5833C2 11.2108 2.18667 9.46667 2.51333 8.35083C2.805 7.37583 3.48167 6.7475 4.53167 6.47667C5.08 6.33583 6.08333 6.23833 7.62333 6.17333C9.14 6.0975 10.5283 6.065 11.8117 6.065L13.6667 6C18.555 6 21.6 6.17333 22.8017 6.47667C23.8517 6.7475 24.5283 7.37583 24.82 8.35083Z" fill="white"/>
</svg>
