<svg width="182" height="13" viewBox="0 0 182 13" fill="none" xmlns="http://www.w3.org/2000/svg">
<path d="M70.3809 12.1686L75.2279 5.48577V7.38595L70.5902 0.896362H73.5532L76.7577 5.42136L75.5178 5.43746L78.674 0.896362H81.5082L76.9027 7.27323V5.40526L81.7819 12.1686H78.7706L75.4534 7.38595H76.645L73.3761 12.1686H70.3809Z" fill="white"/>
<path d="M58.4551 12.1686L63.4793 0.896362H66.0558L71.0961 12.1686H68.3585L64.2361 2.21682H65.2667L61.1282 12.1686H58.4551ZM60.9672 9.75312L61.6596 7.77243H67.4568L68.1653 9.75312H60.9672Z" fill="white"/>
<path d="M52.8825 12.1686V3.02198H49.2754V0.896362H59.0983V3.02198H55.4912V12.1686H52.8825Z" fill="white"/>
<path d="M38.8633 12.1686V0.896362H43.7425C44.7517 0.896362 45.6213 1.06276 46.3513 1.39556C47.0813 1.71762 47.6449 2.18462 48.0421 2.79654C48.4393 3.40846 48.6379 4.13847 48.6379 4.98657C48.6379 5.82394 48.4393 6.54858 48.0421 7.1605C47.6449 7.76169 47.0813 8.22331 46.3513 8.54538C45.6213 8.86744 44.7517 9.02847 43.7425 9.02847H40.3126L41.472 7.88515V12.1686H38.8633ZM46.0292 12.1686L43.2111 8.07839H45.997L48.8473 12.1686H46.0292ZM41.472 8.175L40.3126 6.95116H43.5976C44.4028 6.95116 45.004 6.7794 45.4012 6.43586C45.7984 6.08159 45.997 5.59849 45.997 4.98657C45.997 4.36392 45.7984 3.88082 45.4012 3.53729C45.004 3.19375 44.4028 3.02198 43.5976 3.02198H40.3126L41.472 1.78204V8.175Z" fill="white"/>
<path d="M25.0527 12.1686L30.0769 0.896362H32.6534L37.6937 12.1686H34.9562L30.8338 2.21682H31.8644L27.7259 12.1686H25.0527ZM27.5648 9.75312L28.2573 7.77243H34.0544L34.763 9.75312H27.5648Z" fill="white"/>
<path d="M11.1543 12.1686V0.896362H13.3121L18.1109 8.85134H16.9675L21.6858 0.896362H23.8275L23.8597 12.1686H21.412L21.3959 4.64841H21.8468L18.0787 10.977H16.9031L13.0545 4.64841H13.602V12.1686H11.1543Z" fill="white"/>
<path d="M4.58941 12.3616C3.68763 12.3616 2.82343 12.2435 1.9968 12.0073C1.17017 11.7604 0.504567 11.4437 0 11.0572L0.885675 9.09264C1.36877 9.43618 1.93775 9.72067 2.59261 9.94611C3.25821 10.1608 3.92918 10.2682 4.60551 10.2682C5.12081 10.2682 5.53413 10.2199 5.84546 10.1232C6.16752 10.0159 6.4037 9.87096 6.554 9.68846C6.70429 9.50596 6.77944 9.29662 6.77944 9.06044C6.77944 8.75984 6.66135 8.52366 6.42517 8.35189C6.18899 8.16939 5.87767 8.02447 5.49119 7.91711C5.10471 7.79902 4.67529 7.69167 4.20293 7.59505C3.74131 7.48769 3.27432 7.35887 2.80196 7.20857C2.34033 7.05827 1.91628 6.86504 1.5298 6.62886C1.14333 6.39267 0.826631 6.08135 0.579715 5.69487C0.343535 5.30839 0.225445 4.81456 0.225445 4.21338C0.225445 3.56925 0.397212 2.98417 0.740747 2.45813C1.09502 1.92135 1.62105 1.4973 2.31886 1.18598C3.0274 0.863912 3.91308 0.702881 4.97589 0.702881C5.68443 0.702881 6.38223 0.788764 7.0693 0.960532C7.75637 1.12156 8.36292 1.36848 8.88896 1.70128L8.0838 3.68197C7.55776 3.38138 7.03173 3.1613 6.50569 3.02174C5.97965 2.87144 5.46435 2.7963 4.95978 2.7963C4.45522 2.7963 4.0419 2.85534 3.71984 2.97343C3.39777 3.09152 3.16696 3.24718 3.0274 3.44042C2.88784 3.62293 2.81806 3.83763 2.81806 4.08455C2.81806 4.37441 2.93615 4.61059 3.17233 4.79309C3.40851 4.96486 3.71984 5.10442 4.10631 5.21177C4.49279 5.31913 4.91684 5.42648 5.37847 5.53384C5.85083 5.64119 6.31782 5.76465 6.77944 5.90421C7.2518 6.04377 7.68122 6.23164 8.0677 6.46782C8.45417 6.704 8.7655 7.01533 9.00168 7.40181C9.2486 7.78828 9.37206 8.27675 9.37206 8.8672C9.37206 9.50059 9.19492 10.0803 8.84065 10.6063C8.48638 11.1324 7.95498 11.5564 7.24644 11.8785C6.54863 12.2006 5.66296 12.3616 4.58941 12.3616Z" fill="white"/>
<path d="M177.916 11.7029C177.102 11.7029 176.353 11.5723 175.67 11.311C174.986 11.0396 174.393 10.6628 173.891 10.1804C173.388 9.6879 172.996 9.11505 172.715 8.4618C172.434 7.80854 172.293 7.08996 172.293 6.30606C172.293 5.52215 172.434 4.80358 172.715 4.15032C172.996 3.49707 173.388 2.92924 173.891 2.44684C174.403 1.95439 175.001 1.57751 175.685 1.31621C176.368 1.04486 177.122 0.90918 177.946 0.90918C178.78 0.90918 179.544 1.04486 180.238 1.31621C180.931 1.58756 181.519 1.99459 182.001 2.53729L181.067 3.47194C180.635 3.04984 180.162 2.74331 179.65 2.55236C179.147 2.35136 178.599 2.25086 178.006 2.25086C177.403 2.25086 176.841 2.35136 176.318 2.55236C175.805 2.75336 175.358 3.03477 174.976 3.39657C174.604 3.75837 174.313 4.19052 174.102 4.69303C173.901 5.18548 173.8 5.72316 173.8 6.30606C173.8 6.87891 173.901 7.41659 174.102 7.91909C174.313 8.41155 174.604 8.8437 174.976 9.21555C175.358 9.57735 175.805 9.85875 176.318 10.0598C176.831 10.2608 177.388 10.3613 177.991 10.3613C178.554 10.3613 179.092 10.2758 179.604 10.105C180.127 9.92408 180.609 9.6276 181.052 9.21555L181.911 10.3613C181.388 10.8035 180.775 11.1401 180.072 11.3713C179.378 11.5924 178.66 11.7029 177.916 11.7029ZM180.464 10.1653V6.24576H181.911V10.3613L180.464 10.1653Z" fill="white"/>
<path d="M160.918 11.5823V1.02979H162.154L169.134 9.69796H168.486V1.02979H169.993V11.5823H168.757L161.777 2.91417H162.425V11.5823H160.918Z" fill="white"/>
<path d="M156.25 11.5823V1.02979H157.758V11.5823H156.25Z" fill="white"/>
<path d="M149.497 11.5823V2.34132H145.879V1.02979H154.607V2.34132H150.989V11.5823H149.497Z" fill="white"/>
<path d="M139.436 11.5823V1.02979H140.943V10.2708H146.657V11.5823H139.436Z" fill="white"/>
<path d="M131.882 11.7029C130.495 11.7029 129.405 11.306 128.611 10.512C127.817 9.71806 127.42 8.55728 127.42 7.02967V1.02979H128.927V6.96937C128.927 8.14523 129.184 9.00451 129.696 9.54721C130.219 10.0899 130.953 10.3613 131.897 10.3613C132.852 10.3613 133.586 10.0899 134.098 9.54721C134.621 9.00451 134.882 8.14523 134.882 6.96937V1.02979H136.344V7.02967C136.344 8.55728 135.947 9.71806 135.153 10.512C134.37 11.306 133.279 11.7029 131.882 11.7029Z" fill="white"/>
<path d="M121.222 11.7029C120.418 11.7029 119.649 11.5823 118.915 11.3411C118.182 11.0899 117.604 10.7683 117.182 10.3763L117.739 9.20047C118.141 9.55223 118.654 9.84368 119.277 10.0748C119.9 10.306 120.548 10.4216 121.222 10.4216C121.835 10.4216 122.332 10.3512 122.714 10.2105C123.096 10.0698 123.377 9.87885 123.558 9.63765C123.739 9.3864 123.83 9.105 123.83 8.79345C123.83 8.43165 123.709 8.14019 123.468 7.91909C123.237 7.69799 122.93 7.52212 122.548 7.39147C122.177 7.25076 121.764 7.13016 121.312 7.02966C120.86 6.92916 120.403 6.81359 119.94 6.68294C119.488 6.54224 119.071 6.36636 118.689 6.15531C118.317 5.94426 118.016 5.66286 117.785 5.3111C117.553 4.9493 117.438 4.487 117.438 3.9242C117.438 3.38149 117.579 2.88402 117.86 2.43176C118.151 1.96946 118.594 1.60263 119.187 1.33128C119.79 1.04988 120.553 0.90918 121.478 0.90918C122.091 0.90918 122.699 0.98958 123.302 1.15038C123.905 1.31118 124.428 1.54233 124.87 1.84383L124.372 3.04984C123.92 2.74834 123.443 2.53226 122.94 2.40161C122.438 2.26091 121.95 2.19056 121.478 2.19056C120.885 2.19056 120.398 2.26594 120.016 2.41669C119.634 2.56744 119.352 2.76844 119.172 3.01969C119.001 3.27094 118.915 3.55234 118.915 3.8639C118.915 4.23575 119.031 4.53222 119.262 4.75333C119.503 4.97443 119.81 5.1503 120.182 5.28095C120.563 5.4116 120.981 5.53221 121.433 5.64276C121.885 5.74326 122.337 5.85883 122.79 5.98948C123.252 6.12013 123.669 6.29098 124.041 6.50204C124.423 6.71309 124.729 6.99449 124.96 7.34624C125.192 7.69799 125.307 8.15024 125.307 8.703C125.307 9.23565 125.161 9.73313 124.87 10.1954C124.578 10.6477 124.126 11.0145 123.513 11.2959C122.91 11.5673 122.146 11.7029 121.222 11.7029Z" fill="white"/>
<path d="M105.912 11.5823V1.02979H107.148L114.128 9.69796H113.48V1.02979H114.987V11.5823H113.751L106.771 2.91417H107.42V11.5823H105.912Z" fill="white"/>
<path d="M98.0141 11.7038C97.21 11.7038 96.4612 11.5681 95.7677 11.2967C95.0843 11.0254 94.4913 10.6485 93.9887 10.166C93.4862 9.67353 93.0942 9.10063 92.8128 8.44733C92.5313 7.79402 92.3906 7.08041 92.3906 6.30649C92.3906 5.53258 92.5313 4.81897 92.8128 4.16566C93.0942 3.51235 93.4862 2.94448 93.9887 2.46204C94.4913 1.96955 95.0843 1.58761 95.7677 1.31624C96.4512 1.04487 97.2 0.90918 98.0141 0.90918C98.8182 0.90918 99.5569 1.04487 100.23 1.31624C100.914 1.57756 101.507 1.95447 102.009 2.44696C102.522 2.9294 102.914 3.49728 103.185 4.15058C103.467 4.80389 103.607 5.52252 103.607 6.30649C103.607 7.09046 103.467 7.8091 103.185 8.4624C102.914 9.11571 102.522 9.68861 102.009 10.1811C101.507 10.6635 100.914 11.0404 100.23 11.3118C99.5569 11.5731 98.8182 11.7038 98.0141 11.7038ZM98.0141 10.362C98.597 10.362 99.1348 10.2615 99.6272 10.0605C100.13 9.85947 100.562 9.57805 100.924 9.21622C101.296 8.84434 101.582 8.41215 101.783 7.91966C101.994 7.42716 102.1 6.88944 102.1 6.30649C102.1 5.72354 101.994 5.18582 101.783 4.69333C101.582 4.20084 101.296 3.77367 100.924 3.41184C100.562 3.03996 100.13 2.75351 99.6272 2.5525C99.1348 2.35148 98.597 2.25097 98.0141 2.25097C97.4211 2.25097 96.8733 2.35148 96.3708 2.5525C95.8783 2.75351 95.4461 3.03996 95.0742 3.41184C94.7023 3.77367 94.4108 4.20084 94.1998 4.69333C93.9988 5.18582 93.8983 5.72354 93.8983 6.30649C93.8983 6.88944 93.9988 7.42716 94.1998 7.91966C94.4108 8.41215 94.7023 8.84434 95.0742 9.21622C95.4461 9.57805 95.8783 9.85947 96.3708 10.0605C96.8733 10.2615 97.4211 10.362 98.0141 10.362Z" fill="white"/>
<path d="M87.2946 11.7031C86.4906 11.7031 85.7469 11.5724 85.0635 11.3111C84.3901 11.0398 83.8022 10.6629 83.2997 10.1805C82.8072 9.68802 82.4203 9.11517 82.1389 8.46192C81.8575 7.80866 81.7168 7.09009 81.7168 6.30618C81.7168 5.52228 81.8575 4.8037 82.1389 4.15044C82.4203 3.49719 82.8123 2.92936 83.3148 2.44696C83.8173 1.95451 84.4052 1.57763 85.0785 1.31633C85.7619 1.04498 86.5056 0.909302 87.3097 0.909302C88.1237 0.909302 88.8724 1.05 89.5558 1.3314C90.2493 1.60276 90.8372 2.00978 91.3196 2.55249L90.3397 3.50222C89.9377 3.08011 89.4855 2.76856 88.983 2.56756C88.4805 2.35651 87.9428 2.25098 87.37 2.25098C86.777 2.25098 86.2242 2.35148 85.7117 2.55249C85.2092 2.75349 84.772 3.03489 84.4002 3.39669C84.0283 3.75849 83.7369 4.19064 83.5258 4.69315C83.3248 5.1856 83.2243 5.72328 83.2243 6.30618C83.2243 6.88908 83.3248 7.43179 83.5258 7.93429C83.7369 8.42674 84.0283 8.85387 84.4002 9.21567C84.772 9.57747 85.2092 9.85888 85.7117 10.0599C86.2242 10.2609 86.777 10.3614 87.37 10.3614C87.9428 10.3614 88.4805 10.2609 88.983 10.0599C89.4855 9.84883 89.9377 9.52722 90.3397 9.09507L91.3196 10.0448C90.8372 10.5875 90.2493 10.9996 89.5558 11.281C88.8724 11.5624 88.1187 11.7031 87.2946 11.7031Z" fill="white"/>
</svg>
