<svg width="161" height="12" viewBox="0 0 161 12" fill="none" xmlns="http://www.w3.org/2000/svg">
<path d="M62.2598 10.8417L66.5475 4.92998V6.6109L62.4449 0.870117H65.0661L67.9008 4.873L66.804 4.88724L69.596 0.870117H72.1031L68.029 6.51119V4.85875L72.3453 10.8417H69.6815L66.747 6.6109H67.8011L64.9094 10.8417H62.2598Z" fill="#4B2685"/>
<path d="M51.7109 10.8417L56.1554 0.870117H58.4346L62.8934 10.8417H60.4717L56.8249 2.03822H57.7366L54.0756 10.8417H51.7109ZM53.9332 8.70494L54.5457 6.95279H59.674L60.3008 8.70494H53.9332Z" fill="#4B2685"/>
<path d="M46.7808 10.8417V2.75047H43.5898V0.870117H52.2794V2.75047H49.0885V10.8417H46.7808Z" fill="#4B2685"/>
<path d="M34.3789 10.8417V0.870117H38.6952C39.5879 0.870117 40.3571 1.01732 41.0029 1.31172C41.6487 1.59662 42.1473 2.00973 42.4986 2.55104C42.85 3.09236 43.0257 3.73814 43.0257 4.48838C43.0257 5.22913 42.85 5.87016 42.4986 6.41147C42.1473 6.94329 41.6487 7.35165 41.0029 7.63655C40.3571 7.92146 39.5879 8.06391 38.6952 8.06391H35.661L36.6866 7.0525V10.8417H34.3789ZM40.718 10.8417L38.2251 7.22345H40.6895L43.2109 10.8417H40.718ZM36.6866 7.30892L35.661 6.22629H38.567C39.2792 6.22629 39.8111 6.07434 40.1624 5.77044C40.5138 5.45705 40.6895 5.0297 40.6895 4.48838C40.6895 3.93757 40.5138 3.51021 40.1624 3.20632C39.8111 2.90242 39.2792 2.75047 38.567 2.75047H35.661L36.6866 1.6536V7.30892Z" fill="#4B2685"/>
<path d="M22.1621 10.8417L26.6066 0.870117H28.8858L33.3445 10.8417H30.9229L27.2761 2.03822H28.1878L24.5268 10.8417H22.1621ZM24.3844 8.70494L24.9969 6.95279H30.1251L30.7519 8.70494H24.3844Z" fill="#4B2685"/>
<path d="M9.86719 10.8417V0.870117H11.776L16.0211 7.90721H15.0097L19.1835 0.870117H21.0781L21.1066 10.8417H18.9413L18.9271 4.18923H19.326L15.9926 9.78757H14.9527L11.5481 4.18923H12.0324V10.8417H9.86719Z" fill="#4B2685"/>
<path d="M4.05986 11.0122C3.26214 11.0122 2.49765 10.9077 1.7664 10.6988C1.03515 10.4804 0.446347 10.2002 0 9.85835L0.783482 8.12044C1.21084 8.42434 1.71416 8.676 2.29347 8.87543C2.88226 9.06537 3.47581 9.16034 4.07411 9.16034C4.52995 9.16034 4.89558 9.1176 5.17098 9.03213C5.45589 8.93716 5.66481 8.80896 5.79777 8.64751C5.93072 8.48607 5.9972 8.30088 5.9972 8.09195C5.9972 7.82604 5.89274 7.61711 5.68381 7.46517C5.47488 7.30372 5.19947 7.17552 4.85759 7.08055C4.51571 6.97609 4.13584 6.88112 3.71798 6.79565C3.30962 6.70068 2.89651 6.58672 2.47865 6.45376C2.07029 6.32081 1.69517 6.14987 1.35329 5.94094C1.0114 5.73201 0.73125 5.4566 0.512825 5.11472C0.303896 4.77284 0.199432 4.33599 0.199432 3.80417C0.199432 3.23436 0.35138 2.71679 0.655276 2.25145C0.968669 1.77661 1.43401 1.40149 2.0513 1.12608C2.67808 0.841181 3.46157 0.69873 4.40175 0.69873C5.02853 0.69873 5.64582 0.774704 6.25361 0.926652C6.8614 1.0691 7.39797 1.28753 7.86331 1.58193L7.15106 3.33408C6.68572 3.06817 6.22037 2.87349 5.75503 2.75003C5.28969 2.61707 4.83385 2.5506 4.3875 2.5506C3.94115 2.5506 3.57553 2.60283 3.29063 2.70729C3.00572 2.81176 2.80154 2.94946 2.67808 3.1204C2.55463 3.28185 2.4929 3.47178 2.4929 3.69021C2.4929 3.94662 2.59736 4.15555 2.80629 4.31699C3.01522 4.46894 3.29063 4.5924 3.63251 4.68737C3.97439 4.78233 4.34951 4.8773 4.75787 4.97227C5.17573 5.06724 5.58884 5.17645 5.9972 5.29991C6.41506 5.42337 6.79493 5.58956 7.13681 5.79849C7.47869 6.00742 7.7541 6.28282 7.96303 6.6247C8.18145 6.96659 8.29067 7.39869 8.29067 7.92101C8.29067 8.48132 8.13397 8.99414 7.82058 9.45949C7.50718 9.92483 7.03709 10.2999 6.41031 10.5849C5.79302 10.8698 5.00954 11.0122 4.05986 11.0122Z" fill="#4B2685"/>
<path d="M157.386 10.4297C156.666 10.4297 156.004 10.3141 155.399 10.0829C154.795 9.84291 154.27 9.50951 153.826 9.08277C153.381 8.64714 153.034 8.14039 152.786 7.56251C152.537 6.98463 152.412 6.34896 152.412 5.65551C152.412 4.96206 152.537 4.32639 152.786 3.74851C153.034 3.17063 153.381 2.66832 153.826 2.24158C154.279 1.80595 154.808 1.47256 155.413 1.24141C156.017 1.00137 156.684 0.881348 157.413 0.881348C158.151 0.881348 158.827 1.00137 159.44 1.24141C160.053 1.48145 160.574 1.84151 161 2.3216L160.173 3.14841C159.791 2.77501 159.373 2.50385 158.92 2.33493C158.475 2.15712 157.991 2.06822 157.466 2.06822C156.933 2.06822 156.435 2.15712 155.973 2.33493C155.519 2.51274 155.124 2.76167 154.786 3.08173C154.457 3.40179 154.199 3.78407 154.012 4.2286C153.835 4.66423 153.746 5.13986 153.746 5.65551C153.746 6.16226 153.835 6.6379 154.012 7.08242C154.199 7.51806 154.457 7.90034 154.786 8.22929C155.124 8.54935 155.519 8.79828 155.973 8.97609C156.426 9.1539 156.92 9.2428 157.453 9.2428C157.951 9.2428 158.426 9.16723 158.88 9.01609C159.342 8.85607 159.769 8.5938 160.16 8.22929L160.92 9.2428C160.458 9.63398 159.916 9.93181 159.293 10.1363C158.68 10.3319 158.044 10.4297 157.386 10.4297ZM159.64 9.06944V5.60217H160.92V9.2428L159.64 9.06944Z" fill="#918BCB"/>
<path d="M142.35 10.3227V0.987793H143.443L149.618 8.65579H149.044V0.987793H150.378V10.3227H149.284L143.11 2.65475H143.683V10.3227H142.35Z" fill="#918BCB"/>
<path d="M138.221 10.3227V0.987793H139.554V10.3227H138.221Z" fill="#918BCB"/>
<path d="M132.245 10.3227V2.14799H129.045V0.987793H136.766V2.14799H133.566V10.3227H132.245Z" fill="#918BCB"/>
<path d="M123.346 10.3227V0.987793H124.679V9.16255H129.733V10.3227H123.346Z" fill="#918BCB"/>
<path d="M116.664 10.4294C115.437 10.4294 114.473 10.0783 113.77 9.37592C113.068 8.67357 112.717 7.64673 112.717 6.29538V0.987793H114.05V6.24204C114.05 7.28222 114.277 8.04235 114.73 8.52244C115.193 9.00252 115.842 9.24256 116.677 9.24256C117.522 9.24256 118.171 9.00252 118.624 8.52244C119.087 8.04235 119.318 7.28222 119.318 6.24204V0.987793H120.612V6.29538C120.612 7.64673 120.26 8.67357 119.558 9.37592C118.865 10.0783 117.9 10.4294 116.664 10.4294Z" fill="#918BCB"/>
<path d="M107.234 10.4297C106.523 10.4297 105.843 10.323 105.194 10.1096C104.545 9.88736 104.034 9.60286 103.66 9.25614L104.154 8.21596C104.509 8.52712 104.963 8.78494 105.514 8.98942C106.065 9.1939 106.638 9.29614 107.234 9.29614C107.776 9.29614 108.217 9.23391 108.554 9.10944C108.892 8.98498 109.141 8.81606 109.301 8.60269C109.461 8.38043 109.541 8.1315 109.541 7.85589C109.541 7.53584 109.434 7.27801 109.221 7.08242C109.017 6.88684 108.745 6.73125 108.408 6.61568C108.079 6.49121 107.714 6.38453 107.314 6.29562C106.914 6.20672 106.51 6.10448 106.101 5.9889C105.701 5.86444 105.332 5.70885 104.994 5.52215C104.665 5.33545 104.398 5.08652 104.194 4.77536C103.989 4.4553 103.887 4.04634 103.887 3.54848C103.887 3.06839 104.011 2.62832 104.26 2.22825C104.518 1.81929 104.909 1.49479 105.434 1.25475C105.967 1.00581 106.643 0.881348 107.461 0.881348C108.003 0.881348 108.541 0.952471 109.074 1.09472C109.608 1.23696 110.07 1.44144 110.461 1.70816L110.021 2.77501C109.621 2.5083 109.199 2.31715 108.754 2.20158C108.31 2.07711 107.879 2.01488 107.461 2.01488C106.936 2.01488 106.505 2.08156 106.167 2.21491C105.829 2.34827 105.58 2.52608 105.42 2.74834C105.269 2.9706 105.194 3.21953 105.194 3.49513C105.194 3.82408 105.296 4.08635 105.5 4.28194C105.714 4.47753 105.985 4.63311 106.314 4.74869C106.652 4.86426 107.021 4.97095 107.421 5.06874C107.821 5.15765 108.221 5.25989 108.621 5.37546C109.03 5.49104 109.399 5.64217 109.728 5.82887C110.066 6.01557 110.337 6.2645 110.541 6.57567C110.746 6.88684 110.848 7.2869 110.848 7.77588C110.848 8.24707 110.719 8.68715 110.461 9.09611C110.204 9.49618 109.803 9.82068 109.261 10.0696C108.728 10.3097 108.052 10.4297 107.234 10.4297Z" fill="#918BCB"/>
<path d="M93.6914 10.3227V0.987793H94.7849L100.959 8.65579H100.386V0.987793H101.719V10.3227H100.626L94.4515 2.65475H95.025V10.3227H93.6914Z" fill="#918BCB"/>
<path d="M86.7051 10.4304C85.9938 10.4304 85.3314 10.3104 84.7179 10.0703C84.1133 9.83029 83.5887 9.49687 83.1442 9.07009C82.6996 8.63443 82.3528 8.12763 82.1039 7.54971C81.8549 6.97178 81.7305 6.34051 81.7305 5.65589C81.7305 4.97128 81.8549 4.34 82.1039 3.76208C82.3528 3.18415 82.6996 2.6818 83.1442 2.25503C83.5887 1.81936 84.1133 1.4815 84.7179 1.24144C85.3225 1.00138 85.9849 0.881348 86.7051 0.881348C87.4164 0.881348 88.0699 1.00138 88.6656 1.24144C89.2702 1.47261 89.7947 1.80603 90.2393 2.24169C90.6927 2.66847 91.0395 3.17082 91.2796 3.74874C91.5285 4.32667 91.653 4.96238 91.653 5.65589C91.653 6.3494 91.5285 6.98512 91.2796 7.56304C91.0395 8.14097 90.6927 8.64777 90.2393 9.08343C89.7947 9.51021 89.2702 9.84363 88.6656 10.0837C88.0699 10.3149 87.4164 10.4304 86.7051 10.4304ZM86.7051 9.24347C87.2208 9.24347 87.6964 9.15456 88.1321 8.97674C88.5767 8.79891 88.959 8.54996 89.2791 8.22988C89.608 7.90091 89.8614 7.51859 90.0392 7.08292C90.226 6.64726 90.3193 6.17158 90.3193 5.65589C90.3193 5.14021 90.226 4.66453 90.0392 4.22886C89.8614 3.7932 89.608 3.41532 89.2791 3.09524C88.959 2.76627 88.5767 2.51287 88.1321 2.33505C87.6964 2.15723 87.2208 2.06832 86.7051 2.06832C86.1805 2.06832 85.6959 2.15723 85.2514 2.33505C84.8157 2.51287 84.4334 2.76627 84.1044 3.09524C83.7754 3.41532 83.5176 3.7932 83.3309 4.22886C83.1531 4.66453 83.0641 5.14021 83.0641 5.65589C83.0641 6.17158 83.1531 6.64726 83.3309 7.08292C83.5176 7.51859 83.7754 7.90091 84.1044 8.22988C84.4334 8.54996 84.8157 8.79891 85.2514 8.97674C85.6959 9.15456 86.1805 9.24347 86.7051 9.24347Z" fill="#918BCB"/>
<path d="M77.2213 10.4297C76.5101 10.4297 75.8522 10.3141 75.2476 10.0829C74.652 9.84291 74.1319 9.50951 73.6874 9.08277C73.2517 8.64714 72.9094 8.14039 72.6605 7.56251C72.4116 6.98463 72.2871 6.34896 72.2871 5.65551C72.2871 4.96206 72.4116 4.32639 72.6605 3.74851C72.9094 3.17063 73.2562 2.66832 73.7007 2.24158C74.1452 1.80595 74.6653 1.47256 75.261 1.24141C75.8655 1.00137 76.5234 0.881348 77.2346 0.881348C77.9548 0.881348 78.6171 1.00581 79.2216 1.25475C79.8351 1.49479 80.3552 1.85485 80.7819 2.33493L79.9151 3.17508C79.5595 2.80168 79.1594 2.52608 78.7149 2.34827C78.2704 2.16157 77.7947 2.06822 77.288 2.06822C76.7634 2.06822 76.2745 2.15712 75.8211 2.33493C75.3765 2.51274 74.9898 2.76167 74.6609 3.08173C74.3319 3.40179 74.0741 3.78407 73.8874 4.2286C73.7096 4.66423 73.6207 5.13986 73.6207 5.65551C73.6207 6.17115 73.7096 6.65124 73.8874 7.09576C74.0741 7.53139 74.3319 7.90924 74.6609 8.22929C74.9898 8.54935 75.3765 8.79828 75.8211 8.97609C76.2745 9.1539 76.7634 9.2428 77.288 9.2428C77.7947 9.2428 78.2704 9.1539 78.7149 8.97609C79.1594 8.78939 79.5595 8.50489 79.9151 8.12261L80.7819 8.96275C80.3552 9.44283 79.8351 9.80734 79.2216 10.0563C78.6171 10.3052 77.9503 10.4297 77.2213 10.4297Z" fill="#918BCB"/>
</svg>
