<svg width="24" height="24" viewBox="0 0 24 24" fill="none" xmlns="http://www.w3.org/2000/svg">
<rect width="24" height="24" rx="5" fill="white"/>
<path fill-rule="evenodd" clip-rule="evenodd" d="M12.6357 9.74668V10.8737C12.8687 10.5097 13.1938 10.2139 13.5779 10.016C13.9621 9.81807 14.3917 9.72517 14.8233 9.74668C17.1436 9.74668 17.6076 11.2051 17.6076 13.0613V16.84H15.4862V13.5254C15.4862 12.6636 15.3537 11.6692 14.0941 11.6692C12.8345 11.6692 12.6357 12.531 12.6357 13.3928V16.84H10.5143V9.74668H12.6357ZM9.12215 7.95678C9.1274 8.12148 9.09421 8.28514 9.0252 8.43478C8.9562 8.58441 8.85328 8.71592 8.72461 8.81886C8.59593 8.92179 8.44504 8.99334 8.28391 9.02781C8.12277 9.06229 7.95582 9.05874 7.79629 9.01746C7.65066 8.97429 7.51601 8.90034 7.40143 8.80062C7.28686 8.70089 7.19504 8.57773 7.13218 8.43945C7.06933 8.30117 7.03691 8.151 7.03711 7.99911C7.03731 7.84721 7.07014 7.69713 7.13337 7.55902C7.20663 7.42254 7.30889 7.30376 7.43298 7.21104C7.55706 7.11831 7.69994 7.05389 7.85159 7.02229C8.00323 6.9907 8.15996 6.99271 8.31074 7.02817C8.46153 7.06363 8.60272 7.13169 8.72439 7.22756C8.92327 7.42644 9.05585 7.69161 9.05585 7.95678H9.12215Z" fill="#4B2685"/>
<path d="M9.12137 9.7467H7V16.84H9.12137V9.7467Z" fill="#4B2685"/>
</svg>
