<svg width="35" height="36" viewBox="0 0 35 36" fill="none" xmlns="http://www.w3.org/2000/svg">
<g clip-path="url(#clip0_4_2851)">
<path d="M17.5 28.7969V33.7969M23.75 26.2969V31.2969M11.25 26.2969V31.2969M20.16 8.51937C20.0166 8.11279 19.7506 7.76071 19.3987 7.51174C19.0467 7.26277 18.6261 7.12917 18.195 7.12937H16.5825C16.1252 7.131 15.6845 7.30105 15.3446 7.60703C15.0048 7.913 14.7895 8.33347 14.74 8.7881C14.6905 9.24273 14.8103 9.69966 15.0764 10.0716C15.3425 10.4435 15.7362 10.7044 16.1825 10.8044L18.64 11.3444C19.1404 11.456 19.5822 11.748 19.8808 12.1647C20.1795 12.5814 20.3142 13.0936 20.2592 13.6033C20.2041 14.113 19.9632 14.5846 19.5824 14.9279C19.2016 15.2712 18.7077 15.4622 18.195 15.4644H16.805C16.374 15.4642 15.9536 15.3305 15.6017 15.0816C15.2498 14.8326 14.9837 14.4808 14.84 14.0744M17.5 7.12937V5.04688M17.5 17.5469V15.4644M6.875 11.9219C6.70924 11.9219 6.55027 11.856 6.43306 11.7388C6.31585 11.6216 6.25 11.4626 6.25 11.2969C6.25 11.1311 6.31585 10.9721 6.43306 10.8549C6.55027 10.7377 6.70924 10.6719 6.875 10.6719C7.04076 10.6719 7.19973 10.7377 7.31694 10.8549C7.43415 10.9721 7.5 11.1311 7.5 11.2969C7.5 11.4626 7.43415 11.6216 7.31694 11.7388C7.19973 11.856 7.04076 11.9219 6.875 11.9219ZM28.125 11.9219C27.9592 11.9219 27.8003 11.856 27.6831 11.7388C27.5658 11.6216 27.5 11.4626 27.5 11.2969C27.5 11.1311 27.5658 10.9721 27.6831 10.8549C27.8003 10.7377 27.9592 10.6719 28.125 10.6719C28.2908 10.6719 28.4497 10.7377 28.5669 10.8549C28.6842 10.9721 28.75 11.1311 28.75 11.2969C28.75 11.4626 28.6842 11.6216 28.5669 11.7388C28.4497 11.856 28.2908 11.9219 28.125 11.9219Z" stroke="#4B2685" stroke-width="2.5" stroke-linecap="round" stroke-linejoin="round"/>
<path d="M31.25 1.29688H3.75C3.08696 1.29688 2.45107 1.56027 1.98223 2.02911C1.51339 2.49795 1.25 3.13383 1.25 3.79688V18.7969C1.25 19.4599 1.51339 20.0958 1.98223 20.5646C2.45107 21.0335 3.08696 21.2969 3.75 21.2969H31.25C31.913 21.2969 32.5489 21.0335 33.0178 20.5646C33.4866 20.0958 33.75 19.4599 33.75 18.7969V3.79688C33.75 3.13383 33.4866 2.49795 33.0178 2.02911C32.5489 1.56027 31.913 1.29688 31.25 1.29688Z" stroke="#4B2685" stroke-width="2.5" stroke-linecap="round" stroke-linejoin="round"/>
</g>
<defs>
<clipPath id="clip0_4_2851">
<rect width="35" height="35" fill="white" transform="translate(0 0.046875)"/>
</clipPath>
</defs>
</svg>
