<svg width="13" height="18" viewBox="0 0 13 18" fill="none" xmlns="http://www.w3.org/2000/svg">
<path d="M5.71983 17.407C0.895488 10.4131 0 9.69535 0 7.125C0 3.60417 2.85417 0.75 6.375 0.75C9.89582 0.75 12.75 3.60417 12.75 7.125C12.75 9.69535 11.8545 10.4131 7.03016 17.407C6.71357 17.8643 6.03639 17.8643 5.71983 17.407ZM6.375 9.78125C7.84201 9.78125 9.03125 8.59201 9.03125 7.125C9.03125 5.65799 7.84201 4.46875 6.375 4.46875C4.90799 4.46875 3.71875 5.65799 3.71875 7.125C3.71875 8.59201 4.90799 9.78125 6.375 9.78125Z" fill="#4B2685"/>
</svg>
