<svg width="23" height="18" viewBox="0 0 23 18" fill="none" xmlns="http://www.w3.org/2000/svg">
<path d="M22.0832 5.66042C22.2508 5.52318 22.5 5.65156 22.5 5.86849V14.9219C22.5 16.0951 21.5762 17.0469 20.4375 17.0469H2.5625C1.42383 17.0469 0.5 16.0951 0.5 14.9219V5.87292C0.5 5.65156 0.744922 5.5276 0.916797 5.66484C1.8793 6.43516 3.15547 7.41354 7.53828 10.694C8.44492 11.3758 9.97461 12.8102 11.5 12.8013C13.034 12.8146 14.5937 11.3492 15.466 10.694C19.8488 7.41354 21.1207 6.43073 22.0832 5.66042ZM11.5 11.3802C12.4969 11.3979 13.932 10.0875 14.6539 9.5474C20.3559 5.28411 20.7898 4.91224 22.1047 3.84974C22.3539 3.65052 22.5 3.34062 22.5 3.01302V2.17188C22.5 0.998698 21.5762 0.046875 20.4375 0.046875H2.5625C1.42383 0.046875 0.5 0.998698 0.5 2.17188V3.01302C0.5 3.34062 0.646094 3.64609 0.895312 3.84974C2.21016 4.90781 2.64414 5.28411 8.34609 9.5474C9.06797 10.0875 10.5031 11.3979 11.5 11.3802Z" fill="#4B2685"/>
</svg>
