<svg width="13" height="17" viewBox="0 0 13 17" fill="none" xmlns="http://www.w3.org/2000/svg">
<path d="M3.88769 0.22679C4.75243 0.107631 5.47955 0.636713 5.8236 1.32439L6.66988 3.01653C7.13938 3.95554 6.86959 5.05734 6.158 5.75047C5.73758 6.15956 5.31507 6.62696 5.07004 7.0394C5.05381 7.0688 5.04875 7.10307 5.05578 7.13591C5.28235 8.36358 6.11436 9.57656 6.85659 10.4463C6.89392 10.4878 6.94263 10.5174 6.99666 10.5313C7.05068 10.5453 7.10761 10.543 7.16036 10.5248L8.82816 10.0037C9.27742 9.86327 9.75985 9.87045 10.2047 10.0242C10.6496 10.1779 11.0336 10.4701 11.3003 10.8579L12.5074 12.6139C12.8347 13.0901 13.0004 13.7362 12.7495 14.3576C12.5254 14.9127 12.092 15.7132 11.3036 16.2457C10.4855 16.7978 9.36479 17.0076 7.89839 16.505C6.25995 15.9428 4.71215 14.533 3.42867 12.7301C2.13764 10.9158 1.07487 8.64973 0.430401 6.28669C-0.178819 4.05582 0.188727 2.55374 1.05389 1.58663C1.88842 0.653496 3.0842 0.337138 3.88769 0.22679ZM4.88501 1.79348C4.69327 1.41041 4.35131 1.22118 4.03034 1.26523C3.31665 1.36341 2.42295 1.629 1.83597 2.28564C1.27962 2.90786 0.89445 4.00379 1.44157 6.01061C2.05625 8.26288 3.06826 10.4153 4.28292 12.1217C5.50514 13.839 6.89393 15.0516 8.23824 15.5127C9.43612 15.9235 10.206 15.7204 10.7162 15.3763C11.2558 15.0117 11.5877 14.4323 11.7765 13.9649C11.8629 13.7509 11.8256 13.474 11.6427 13.208L10.4355 11.4525C10.2959 11.2493 10.0948 11.0962 9.86178 11.0157C9.62877 10.9351 9.37608 10.9313 9.14074 11.0048L7.47294 11.5259C6.97449 11.6816 6.4131 11.5427 6.05856 11.1273C5.28612 10.2223 4.3018 8.83434 4.02363 7.32597C3.97045 7.04328 4.02174 6.7509 4.16796 6.50319C4.486 5.96865 4.98949 5.42363 5.42542 4.99902C5.85129 4.58448 5.97213 3.96771 5.73129 3.48562L4.88501 1.79348Z" fill="white"/>
</svg>
