<svg width="45" height="40" viewBox="0 0 45 40" fill="none" xmlns="http://www.w3.org/2000/svg">
<path d="M40.2773 8.88889H35.8329V20C35.8329 22.3575 34.8964 24.6184 33.2294 26.2854C31.5624 27.9524 29.3015 28.8889 26.944 28.8889H20.2773L15.4907 32.4778C16.2327 33.0284 17.1311 33.3281 18.0551 33.3333H26.204L34.4996 39.5556C34.8842 39.844 35.3521 40 35.8329 40C36.4223 40 36.9875 39.7659 37.4042 39.3491C37.821 38.9324 38.0551 38.3671 38.0551 37.7778V33.3333H40.2773C41.4561 33.3333 42.5865 32.8651 43.42 32.0316C44.2535 31.1981 44.7218 30.0676 44.7218 28.8889V13.3333C44.7218 12.1546 44.2535 11.0241 43.42 10.1906C42.5865 9.35714 41.4561 8.88889 40.2773 8.88889Z" fill="#4B2685"/>
<path d="M26.944 0H4.72179C3.54305 0 2.41259 0.468252 1.57909 1.30175C0.745596 2.13524 0.277344 3.2657 0.277344 4.44444V20C0.277344 21.1787 0.745596 22.3092 1.57909 23.1427C2.41259 23.9762 3.54305 24.4444 4.72179 24.4444H6.94401V28.8889C6.94401 29.3016 7.05893 29.7061 7.2759 30.0572C7.49286 30.4082 7.8033 30.6919 8.17242 30.8765C8.54155 31.0611 8.95477 31.1392 9.3658 31.1021C9.77682 31.0651 10.1694 30.9143 10.4996 30.6667L18.7951 24.4444H26.944C28.1227 24.4444 29.2532 23.9762 30.0867 23.1427C30.9202 22.3092 31.3885 21.1787 31.3885 20V4.44444C31.3885 3.2657 30.9202 2.13524 30.0867 1.30175C29.2532 0.468252 28.1227 0 26.944 0Z" fill="#4B2685"/>
</svg>
