<svg width="66" height="54" viewBox="0 0 66 54" fill="none" xmlns="http://www.w3.org/2000/svg">
<path d="M25.8851 0H15.5596L10.416 8.92659L15.5596 17.8702H25.8851L31.0286 8.92659L25.8851 0Z" fill="white"/>
<path d="M60.7601 18.1134H50.4559L45.291 27.057L50.4559 35.9794H60.7601L65.925 27.057L60.7601 18.1134Z" fill="white"/>
<path d="M27.7823 39.0204L27.4368 38.419L25.8844 35.7193H25.8759L18.9368 23.7048H18.9325L15.5589 17.8704H5.25046L0.0898438 26.7969L3.56153 32.802L12.0702 47.5332L15.5589 53.5852H25.8844L31.028 44.6629L27.7823 39.0204Z" fill="white"/>
<path d="M48.1511 38.5853L48.1638 38.5768L39.3354 23.2613L39.314 23.2741L36.1878 17.8704H25.8836L20.7188 26.7969L25.8836 35.7193H25.8879L31.04 44.6373L31.0272 44.6629L36.1878 53.5852H46.4962L51.6569 44.6629L48.1511 38.5853Z" fill="white"/>
</svg>
