<svg width="59" height="48" viewBox="0 0 59 48" fill="none" xmlns="http://www.w3.org/2000/svg">
<path d="M23.2076 0H14.0735L9.52344 7.8966L14.0735 15.8083H23.2076L27.7577 7.8966L23.2076 0Z" fill="#94928B"/>
<path d="M54.0572 16.0234H44.942L40.373 23.9351L44.942 31.8279H54.0572L58.6261 23.9351L54.0572 16.0234Z" fill="#4B2685"/>
<path d="M24.8859 34.5182L24.5803 33.9862L23.2069 31.598H23.1994L17.0609 20.9699H17.0572L14.0728 15.8086H4.95383L0.388672 23.7052L3.45978 29.0174L10.9866 42.0488L14.0728 47.4025H23.2069L27.757 39.5097L24.8859 34.5182Z" fill="#4B2685"/>
<path d="M42.9057 34.1334L42.917 34.1258L35.1072 20.5775L35.0883 20.5888L32.3228 15.8086H23.2076L18.6387 23.7052L23.2076 31.598H23.2114L27.769 39.4871L27.7577 39.5097L32.3228 47.4025H41.4418L46.007 39.5097L42.9057 34.1334Z" fill="#918BCB"/>
</svg>
